<?xml version="1.0" encoding="UTF-8" standalone="no"?>
<!DOCTYPE svg PUBLIC "-//W3C//DTD SVG 1.1//EN"
 "http://www.w3.org/Graphics/SVG/1.1/DTD/svg11.dtd">
<!-- Generated by graphviz version 2.44.1 (20200629.0846)
 -->
<!-- Pages: 1 -->
<svg width="2154pt" height="620pt"
 viewBox="0.00 0.00 2154.13 620.00" xmlns="http://www.w3.org/2000/svg" xmlns:xlink="http://www.w3.org/1999/xlink">
<g id="graph0" class="graph" transform="scale(1 1) rotate(0) translate(4 616)">
<polygon fill="white" stroke="transparent" points="-4,4 -4,-616 2150.13,-616 2150.13,4 -4,4"/>
<!-- [root] aws_alb.fargate&#45;tutorial (expand) -->
<g id="node1" class="node">
<title>[root] aws_alb.fargate&#45;tutorial (expand)</title>
<polygon fill="none" stroke="black" points="1962.89,-324 1813.24,-324 1813.24,-288 1962.89,-288 1962.89,-324"/>
<text text-anchor="middle" x="1888.07" y="-301.8" font-family="Times,serif" font-size="14.00">aws_alb.fargate&#45;tutorial</text>
</g>
<!-- [root] aws_internet_gateway.igw (expand) -->
<g id="node12" class="node">
<title>[root] aws_internet_gateway.igw (expand)</title>
<polygon fill="none" stroke="black" points="2129.73,-252 1964.4,-252 1964.4,-216 2129.73,-216 2129.73,-252"/>
<text text-anchor="middle" x="2047.07" y="-229.8" font-family="Times,serif" font-size="14.00">aws_internet_gateway.igw</text>
</g>
<!-- [root] aws_alb.fargate&#45;tutorial (expand)&#45;&gt;[root] aws_internet_gateway.igw (expand) -->
<g id="edge1" class="edge">
<title>[root] aws_alb.fargate&#45;tutorial (expand)&#45;&gt;[root] aws_internet_gateway.igw (expand)</title>
<path fill="none" stroke="black" d="M1926.96,-287.88C1948.7,-278.31 1975.97,-266.3 1999.03,-256.15"/>
<polygon fill="black" stroke="black" points="2000.56,-259.3 2008.3,-252.07 1997.73,-252.89 2000.56,-259.3"/>
</g>
<!-- [root] aws_security_group.egress_all (expand) -->
<g id="node22" class="node">
<title>[root] aws_security_group.egress_all (expand)</title>
<polygon fill="none" stroke="black" points="1946.28,-252 1757.85,-252 1757.85,-216 1946.28,-216 1946.28,-252"/>
<text text-anchor="middle" x="1852.07" y="-229.8" font-family="Times,serif" font-size="14.00">aws_security_group.egress_all</text>
</g>
<!-- [root] aws_alb.fargate&#45;tutorial (expand)&#45;&gt;[root] aws_security_group.egress_all (expand) -->
<g id="edge2" class="edge">
<title>[root] aws_alb.fargate&#45;tutorial (expand)&#45;&gt;[root] aws_security_group.egress_all (expand)</title>
<path fill="none" stroke="black" d="M1879.17,-287.7C1875.07,-279.73 1870.12,-270.1 1865.57,-261.26"/>
<polygon fill="black" stroke="black" points="1868.55,-259.4 1860.86,-252.1 1862.32,-262.6 1868.55,-259.4"/>
</g>
<!-- [root] aws_security_group.http (expand) -->
<g id="node23" class="node">
<title>[root] aws_security_group.http (expand)</title>
<polygon fill="none" stroke="black" points="1740.09,-252 1586.04,-252 1586.04,-216 1740.09,-216 1740.09,-252"/>
<text text-anchor="middle" x="1663.07" y="-229.8" font-family="Times,serif" font-size="14.00">aws_security_group.http</text>
</g>
<!-- [root] aws_alb.fargate&#45;tutorial (expand)&#45;&gt;[root] aws_security_group.http (expand) -->
<g id="edge3" class="edge">
<title>[root] aws_alb.fargate&#45;tutorial (expand)&#45;&gt;[root] aws_security_group.http (expand)</title>
<path fill="none" stroke="black" d="M1833.31,-287.97C1801.47,-278.06 1761.15,-265.51 1727.74,-255.12"/>
<polygon fill="black" stroke="black" points="1728.65,-251.74 1718.07,-252.11 1726.57,-258.42 1728.65,-251.74"/>
</g>
<!-- [root] aws_subnet.public_a (expand) -->
<g id="node26" class="node">
<title>[root] aws_subnet.public_a (expand)</title>
<polygon fill="none" stroke="black" points="1567.59,-252 1434.54,-252 1434.54,-216 1567.59,-216 1567.59,-252"/>
<text text-anchor="middle" x="1501.07" y="-229.8" font-family="Times,serif" font-size="14.00">aws_subnet.public_a</text>
</g>
<!-- [root] aws_alb.fargate&#45;tutorial (expand)&#45;&gt;[root] aws_subnet.public_a (expand) -->
<g id="edge4" class="edge">
<title>[root] aws_alb.fargate&#45;tutorial (expand)&#45;&gt;[root] aws_subnet.public_a (expand)</title>
<path fill="none" stroke="black" d="M1812.99,-289.64C1809.98,-289.08 1807,-288.53 1804.07,-288 1706.68,-270.43 1679.11,-271.1 1577.79,-252.07"/>
<polygon fill="black" stroke="black" points="1578.22,-248.59 1567.75,-250.16 1576.92,-255.47 1578.22,-248.59"/>
</g>
<!-- [root] aws_subnet.public_c (expand) -->
<g id="node27" class="node">
<title>[root] aws_subnet.public_c (expand)</title>
<polygon fill="none" stroke="black" points="1416.59,-252 1283.54,-252 1283.54,-216 1416.59,-216 1416.59,-252"/>
<text text-anchor="middle" x="1350.07" y="-229.8" font-family="Times,serif" font-size="14.00">aws_subnet.public_c</text>
</g>
<!-- [root] aws_alb.fargate&#45;tutorial (expand)&#45;&gt;[root] aws_subnet.public_c (expand) -->
<g id="edge5" class="edge">
<title>[root] aws_alb.fargate&#45;tutorial (expand)&#45;&gt;[root] aws_subnet.public_c (expand)</title>
<path fill="none" stroke="black" d="M1813.03,-289.41C1810.01,-288.91 1807.01,-288.44 1804.07,-288 1639.88,-263.66 1593.88,-278.18 1426.52,-252.12"/>
<polygon fill="black" stroke="black" points="1427.06,-248.66 1416.64,-250.55 1425.97,-255.57 1427.06,-248.66"/>
</g>
<!-- [root] aws_alb_listener.fargate&#45;tutorial_http (expand) -->
<g id="node2" class="node">
<title>[root] aws_alb_listener.fargate&#45;tutorial_http (expand)</title>
<polygon fill="none" stroke="black" points="1770.38,-468 1543.75,-468 1543.75,-432 1770.38,-432 1770.38,-468"/>
<text text-anchor="middle" x="1657.07" y="-445.8" font-family="Times,serif" font-size="14.00">aws_alb_listener.fargate&#45;tutorial_http</text>
</g>
<!-- [root] aws_lb_target_group.fargate&#45;tutorial (expand) -->
<g id="node13" class="node">
<title>[root] aws_lb_target_group.fargate&#45;tutorial (expand)</title>
<polygon fill="none" stroke="black" points="1767.71,-396 1546.42,-396 1546.42,-360 1767.71,-360 1767.71,-396"/>
<text text-anchor="middle" x="1657.07" y="-373.8" font-family="Times,serif" font-size="14.00">aws_lb_target_group.fargate&#45;tutorial</text>
</g>
<!-- [root] aws_alb_listener.fargate&#45;tutorial_http (expand)&#45;&gt;[root] aws_lb_target_group.fargate&#45;tutorial (expand) -->
<g id="edge6" class="edge">
<title>[root] aws_alb_listener.fargate&#45;tutorial_http (expand)&#45;&gt;[root] aws_lb_target_group.fargate&#45;tutorial (expand)</title>
<path fill="none" stroke="black" d="M1657.07,-431.7C1657.07,-423.98 1657.07,-414.71 1657.07,-406.11"/>
<polygon fill="black" stroke="black" points="1660.57,-406.1 1657.07,-396.1 1653.57,-406.1 1660.57,-406.1"/>
</g>
<!-- [root] aws_cloudwatch_log_group.fargate&#45;tutorial (expand) -->
<g id="node3" class="node">
<title>[root] aws_cloudwatch_log_group.fargate&#45;tutorial (expand)</title>
<polygon fill="none" stroke="black" points="732.87,-180 471.26,-180 471.26,-144 732.87,-144 732.87,-180"/>
<text text-anchor="middle" x="602.07" y="-157.8" font-family="Times,serif" font-size="14.00">aws_cloudwatch_log_group.fargate&#45;tutorial</text>
</g>
<!-- [root] provider[&quot;registry.terraform.io/hashicorp/aws&quot;] -->
<g id="node30" class="node">
<title>[root] provider[&quot;registry.terraform.io/hashicorp/aws&quot;]</title>
<polygon fill="none" stroke="black" points="725.07,-108 450.08,-90 725.07,-72 1000.06,-90 725.07,-108"/>
<text text-anchor="middle" x="725.07" y="-85.8" font-family="Times,serif" font-size="14.00">provider[&quot;registry.terraform.io/hashicorp/aws&quot;]</text>
</g>
<!-- [root] aws_cloudwatch_log_group.fargate&#45;tutorial (expand)&#45;&gt;[root] provider[&quot;registry.terraform.io/hashicorp/aws&quot;] -->
<g id="edge7" class="edge">
<title>[root] aws_cloudwatch_log_group.fargate&#45;tutorial (expand)&#45;&gt;[root] provider[&quot;registry.terraform.io/hashicorp/aws&quot;]</title>
<path fill="none" stroke="black" d="M632.16,-143.88C649.36,-134.09 671.04,-121.75 689.13,-111.45"/>
<polygon fill="black" stroke="black" points="691.26,-114.27 698.22,-106.28 687.8,-108.18 691.26,-114.27"/>
</g>
<!-- [root] aws_ecr_lifecycle_policy.fargate&#45;tutorial (expand) -->
<g id="node4" class="node">
<title>[root] aws_ecr_lifecycle_policy.fargate&#45;tutorial (expand)</title>
<polygon fill="none" stroke="black" points="311.56,-468 64.57,-468 64.57,-432 311.56,-432 311.56,-468"/>
<text text-anchor="middle" x="188.07" y="-445.8" font-family="Times,serif" font-size="14.00">aws_ecr_lifecycle_policy.fargate&#45;tutorial</text>
</g>
<!-- [root] aws_ecr_repository.fargate&#45;tutorial (expand) -->
<g id="node5" class="node">
<title>[root] aws_ecr_repository.fargate&#45;tutorial (expand)</title>
<polygon fill="none" stroke="black" points="259.64,-324 46.5,-324 46.5,-288 259.64,-288 259.64,-324"/>
<text text-anchor="middle" x="153.07" y="-301.8" font-family="Times,serif" font-size="14.00">aws_ecr_repository.fargate&#45;tutorial</text>
</g>
<!-- [root] aws_ecr_lifecycle_policy.fargate&#45;tutorial (expand)&#45;&gt;[root] aws_ecr_repository.fargate&#45;tutorial (expand) -->
<g id="edge8" class="edge">
<title>[root] aws_ecr_lifecycle_policy.fargate&#45;tutorial (expand)&#45;&gt;[root] aws_ecr_repository.fargate&#45;tutorial (expand)</title>
<path fill="none" stroke="black" d="M93.11,-431.96C55.37,-423.08 18.26,-410.94 7.07,-396 -2.53,-383.19 -2.12,-373.1 7.07,-360 16.83,-346.06 30.66,-335.78 45.95,-328.19"/>
<polygon fill="black" stroke="black" points="47.45,-331.35 55.1,-324.02 44.55,-324.98 47.45,-331.35"/>
</g>
<!-- [root] local.ecr_lifecycle_policy (expand) -->
<g id="node35" class="node">
<title>[root] local.ecr_lifecycle_policy (expand)</title>
<ellipse fill="none" stroke="black" cx="188.07" cy="-378" rx="172.35" ry="18"/>
<text text-anchor="middle" x="188.07" y="-373.8" font-family="Times,serif" font-size="14.00">[root] local.ecr_lifecycle_policy (expand)</text>
</g>
<!-- [root] aws_ecr_lifecycle_policy.fargate&#45;tutorial (expand)&#45;&gt;[root] local.ecr_lifecycle_policy (expand) -->
<g id="edge9" class="edge">
<title>[root] aws_ecr_lifecycle_policy.fargate&#45;tutorial (expand)&#45;&gt;[root] local.ecr_lifecycle_policy (expand)</title>
<path fill="none" stroke="black" d="M188.07,-431.7C188.07,-423.98 188.07,-414.71 188.07,-406.11"/>
<polygon fill="black" stroke="black" points="191.57,-406.1 188.07,-396.1 184.57,-406.1 191.57,-406.1"/>
</g>
<!-- [root] aws_ecr_repository.fargate&#45;tutorial (expand)&#45;&gt;[root] provider[&quot;registry.terraform.io/hashicorp/aws&quot;] -->
<g id="edge10" class="edge">
<title>[root] aws_ecr_repository.fargate&#45;tutorial (expand)&#45;&gt;[root] provider[&quot;registry.terraform.io/hashicorp/aws&quot;]</title>
<path fill="none" stroke="black" d="M176.69,-287.85C223.64,-254.64 333.03,-181.53 436.07,-144 492.36,-123.5 557.82,-110.65 612.2,-102.75"/>
<polygon fill="black" stroke="black" points="612.8,-106.2 622.21,-101.33 611.82,-99.27 612.8,-106.2"/>
</g>
<!-- [root] aws_ecs_cluster.fargate&#45;tutorial (expand) -->
<g id="node6" class="node">
<title>[root] aws_ecs_cluster.fargate&#45;tutorial (expand)</title>
<polygon fill="none" stroke="black" points="945.48,-180 750.66,-180 750.66,-144 945.48,-144 945.48,-180"/>
<text text-anchor="middle" x="848.07" y="-157.8" font-family="Times,serif" font-size="14.00">aws_ecs_cluster.fargate&#45;tutorial</text>
</g>
<!-- [root] aws_ecs_cluster.fargate&#45;tutorial (expand)&#45;&gt;[root] provider[&quot;registry.terraform.io/hashicorp/aws&quot;] -->
<g id="edge11" class="edge">
<title>[root] aws_ecs_cluster.fargate&#45;tutorial (expand)&#45;&gt;[root] provider[&quot;registry.terraform.io/hashicorp/aws&quot;]</title>
<path fill="none" stroke="black" d="M817.98,-143.88C800.78,-134.09 779.1,-121.75 761.01,-111.45"/>
<polygon fill="black" stroke="black" points="762.34,-108.18 751.91,-106.28 758.87,-114.27 762.34,-108.18"/>
</g>
<!-- [root] aws_ecs_service.fargate&#45;tutorial (expand) -->
<g id="node7" class="node">
<title>[root] aws_ecs_service.fargate&#45;tutorial (expand)</title>
<polygon fill="none" stroke="black" points="1002.3,-468 805.83,-468 805.83,-432 1002.3,-432 1002.3,-468"/>
<text text-anchor="middle" x="904.07" y="-445.8" font-family="Times,serif" font-size="14.00">aws_ecs_service.fargate&#45;tutorial</text>
</g>
<!-- [root] aws_ecs_service.fargate&#45;tutorial (expand)&#45;&gt;[root] aws_ecs_cluster.fargate&#45;tutorial (expand) -->
<g id="edge12" class="edge">
<title>[root] aws_ecs_service.fargate&#45;tutorial (expand)&#45;&gt;[root] aws_ecs_cluster.fargate&#45;tutorial (expand)</title>
<path fill="none" stroke="black" d="M805.77,-434.31C762.31,-425.61 718.08,-412.94 705.07,-396 649.66,-323.9 757.26,-229.23 814.93,-186.14"/>
<polygon fill="black" stroke="black" points="817.07,-188.91 823.05,-180.17 812.92,-183.28 817.07,-188.91"/>
</g>
<!-- [root] aws_ecs_task_definition.fargate&#45;tutorial (expand) -->
<g id="node8" class="node">
<title>[root] aws_ecs_task_definition.fargate&#45;tutorial (expand)</title>
<polygon fill="none" stroke="black" points="657.65,-396 416.49,-396 416.49,-360 657.65,-360 657.65,-396"/>
<text text-anchor="middle" x="537.07" y="-373.8" font-family="Times,serif" font-size="14.00">aws_ecs_task_definition.fargate&#45;tutorial</text>
</g>
<!-- [root] aws_ecs_service.fargate&#45;tutorial (expand)&#45;&gt;[root] aws_ecs_task_definition.fargate&#45;tutorial (expand) -->
<g id="edge13" class="edge">
<title>[root] aws_ecs_service.fargate&#45;tutorial (expand)&#45;&gt;[root] aws_ecs_task_definition.fargate&#45;tutorial (expand)</title>
<path fill="none" stroke="black" d="M814.76,-431.97C760.82,-421.68 691.97,-408.55 636.33,-397.93"/>
<polygon fill="black" stroke="black" points="636.94,-394.49 626.46,-396.05 635.62,-401.36 636.94,-394.49"/>
</g>
<!-- [root] aws_ecs_service.fargate&#45;tutorial (expand)&#45;&gt;[root] aws_lb_target_group.fargate&#45;tutorial (expand) -->
<g id="edge14" class="edge">
<title>[root] aws_ecs_service.fargate&#45;tutorial (expand)&#45;&gt;[root] aws_lb_target_group.fargate&#45;tutorial (expand)</title>
<path fill="none" stroke="black" d="M1002.48,-440.71C1120.17,-430.68 1323.09,-413.02 1497.07,-396 1509.69,-394.76 1522.88,-393.43 1536.02,-392.08"/>
<polygon fill="black" stroke="black" points="1536.47,-395.55 1546.06,-391.04 1535.75,-388.59 1536.47,-395.55"/>
</g>
<!-- [root] aws_security_group.ingress_app (expand) -->
<g id="node24" class="node">
<title>[root] aws_security_group.ingress_app (expand)</title>
<polygon fill="none" stroke="black" points="913.68,-396 714.46,-396 714.46,-360 913.68,-360 913.68,-396"/>
<text text-anchor="middle" x="814.07" y="-373.8" font-family="Times,serif" font-size="14.00">aws_security_group.ingress_app</text>
</g>
<!-- [root] aws_ecs_service.fargate&#45;tutorial (expand)&#45;&gt;[root] aws_security_group.ingress_app (expand) -->
<g id="edge15" class="edge">
<title>[root] aws_ecs_service.fargate&#45;tutorial (expand)&#45;&gt;[root] aws_security_group.ingress_app (expand)</title>
<path fill="none" stroke="black" d="M881.82,-431.7C870.48,-422.88 856.54,-412.03 844.25,-402.47"/>
<polygon fill="black" stroke="black" points="846.1,-399.48 836.06,-396.1 841.8,-405.01 846.1,-399.48"/>
</g>
<!-- [root] aws_subnet.private_a (expand) -->
<g id="node25" class="node">
<title>[root] aws_subnet.private_a (expand)</title>
<polygon fill="none" stroke="black" points="888.47,-324 751.67,-324 751.67,-288 888.47,-288 888.47,-324"/>
<text text-anchor="middle" x="820.07" y="-301.8" font-family="Times,serif" font-size="14.00">aws_subnet.private_a</text>
</g>
<!-- [root] aws_ecs_service.fargate&#45;tutorial (expand)&#45;&gt;[root] aws_subnet.private_a (expand) -->
<g id="edge16" class="edge">
<title>[root] aws_ecs_service.fargate&#45;tutorial (expand)&#45;&gt;[root] aws_subnet.private_a (expand)</title>
<path fill="none" stroke="black" d="M914.71,-431.69C924.83,-412.79 936.64,-382.25 923.07,-360 914.86,-346.55 902.03,-336.37 888.18,-328.72"/>
<polygon fill="black" stroke="black" points="889.47,-325.44 878.96,-324.04 886.3,-331.69 889.47,-325.44"/>
</g>
<!-- [root] aws_ecs_task_definition.fargate&#45;tutorial (expand)&#45;&gt;[root] aws_cloudwatch_log_group.fargate&#45;tutorial (expand) -->
<g id="edge17" class="edge">
<title>[root] aws_ecs_task_definition.fargate&#45;tutorial (expand)&#45;&gt;[root] aws_cloudwatch_log_group.fargate&#45;tutorial (expand)</title>
<path fill="none" stroke="black" d="M559.59,-359.83C570.13,-350.47 581.73,-337.95 588.07,-324 607.77,-280.63 607.5,-223.96 605.08,-190.71"/>
<polygon fill="black" stroke="black" points="608.53,-190.06 604.2,-180.39 601.56,-190.65 608.53,-190.06"/>
</g>
<!-- [root] aws_ecs_task_definition.fargate&#45;tutorial (expand)&#45;&gt;[root] aws_ecr_repository.fargate&#45;tutorial (expand) -->
<g id="edge18" class="edge">
<title>[root] aws_ecs_task_definition.fargate&#45;tutorial (expand)&#45;&gt;[root] aws_ecr_repository.fargate&#45;tutorial (expand)</title>
<path fill="none" stroke="black" d="M443.62,-359.97C387.06,-349.66 314.85,-336.49 256.57,-325.87"/>
<polygon fill="black" stroke="black" points="257.06,-322.4 246.6,-324.05 255.81,-329.29 257.06,-322.4"/>
</g>
<!-- [root] aws_iam_role.fargate&#45;tutorial_task_execution_role (expand) -->
<g id="node10" class="node">
<title>[root] aws_iam_role.fargate&#45;tutorial_task_execution_role (expand)</title>
<polygon fill="none" stroke="black" points="578.79,-324 277.34,-324 277.34,-288 578.79,-288 578.79,-324"/>
<text text-anchor="middle" x="428.07" y="-301.8" font-family="Times,serif" font-size="14.00">aws_iam_role.fargate&#45;tutorial_task_execution_role</text>
</g>
<!-- [root] aws_ecs_task_definition.fargate&#45;tutorial (expand)&#45;&gt;[root] aws_iam_role.fargate&#45;tutorial_task_execution_role (expand) -->
<g id="edge19" class="edge">
<title>[root] aws_ecs_task_definition.fargate&#45;tutorial (expand)&#45;&gt;[root] aws_iam_role.fargate&#45;tutorial_task_execution_role (expand)</title>
<path fill="none" stroke="black" d="M510.4,-359.88C496.28,-350.81 478.76,-339.55 463.51,-329.76"/>
<polygon fill="black" stroke="black" points="465.14,-326.65 454.83,-324.19 461.36,-332.54 465.14,-326.65"/>
</g>
<!-- [root] aws_eip.nat (expand) -->
<g id="node9" class="node">
<title>[root] aws_eip.nat (expand)</title>
<polygon fill="none" stroke="black" points="1783.54,-180 1700.59,-180 1700.59,-144 1783.54,-144 1783.54,-180"/>
<text text-anchor="middle" x="1742.07" y="-157.8" font-family="Times,serif" font-size="14.00">aws_eip.nat</text>
</g>
<!-- [root] aws_eip.nat (expand)&#45;&gt;[root] provider[&quot;registry.terraform.io/hashicorp/aws&quot;] -->
<g id="edge20" class="edge">
<title>[root] aws_eip.nat (expand)&#45;&gt;[root] provider[&quot;registry.terraform.io/hashicorp/aws&quot;]</title>
<path fill="none" stroke="black" d="M1700.62,-158.15C1559.88,-148.46 1096.04,-116.53 862.28,-100.44"/>
<polygon fill="black" stroke="black" points="862.23,-96.93 852.01,-99.74 861.75,-103.92 862.23,-96.93"/>
</g>
<!-- [root] aws_iam_role.fargate&#45;tutorial_task_execution_role (expand)&#45;&gt;[root] provider[&quot;registry.terraform.io/hashicorp/aws&quot;] -->
<g id="edge21" class="edge">
<title>[root] aws_iam_role.fargate&#45;tutorial_task_execution_role (expand)&#45;&gt;[root] provider[&quot;registry.terraform.io/hashicorp/aws&quot;]</title>
<path fill="none" stroke="black" d="M426.13,-287.85C423.47,-254.98 422.8,-182.91 462.07,-144 482.83,-123.43 546.43,-110.29 605.89,-102.24"/>
<polygon fill="black" stroke="black" points="606.69,-105.67 616.15,-100.89 605.78,-98.72 606.69,-105.67"/>
</g>
<!-- [root] aws_iam_role_policy_attachment.ecs_task_execution_role (expand) -->
<g id="node11" class="node">
<title>[root] aws_iam_role_policy_attachment.ecs_task_execution_role (expand)</title>
<polygon fill="none" stroke="black" points="713.13,-468 367.01,-468 367.01,-432 713.13,-432 713.13,-468"/>
<text text-anchor="middle" x="540.07" y="-445.8" font-family="Times,serif" font-size="14.00">aws_iam_role_policy_attachment.ecs_task_execution_role</text>
</g>
<!-- [root] aws_iam_role_policy_attachment.ecs_task_execution_role (expand)&#45;&gt;[root] aws_iam_role.fargate&#45;tutorial_task_execution_role (expand) -->
<g id="edge22" class="edge">
<title>[root] aws_iam_role_policy_attachment.ecs_task_execution_role (expand)&#45;&gt;[root] aws_iam_role.fargate&#45;tutorial_task_execution_role (expand)</title>
<path fill="none" stroke="black" d="M454.42,-431.92C435.83,-424.09 418.36,-412.66 407.07,-396 394.42,-377.34 402.26,-352 411.76,-333.12"/>
<polygon fill="black" stroke="black" points="414.92,-334.64 416.62,-324.18 408.77,-331.29 414.92,-334.64"/>
</g>
<!-- [root] aws_vpc.fargate&#45;tutorial (expand) -->
<g id="node28" class="node">
<title>[root] aws_vpc.fargate&#45;tutorial (expand)</title>
<polygon fill="none" stroke="black" points="1347.5,-180 1194.63,-180 1194.63,-144 1347.5,-144 1347.5,-180"/>
<text text-anchor="middle" x="1271.07" y="-157.8" font-family="Times,serif" font-size="14.00">aws_vpc.fargate&#45;tutorial</text>
</g>
<!-- [root] aws_internet_gateway.igw (expand)&#45;&gt;[root] aws_vpc.fargate&#45;tutorial (expand) -->
<g id="edge23" class="edge">
<title>[root] aws_internet_gateway.igw (expand)&#45;&gt;[root] aws_vpc.fargate&#45;tutorial (expand)</title>
<path fill="none" stroke="black" d="M1964.38,-217.3C1961.24,-216.83 1958.13,-216.4 1955.07,-216 1741.34,-188.05 1487.96,-173.13 1357.81,-166.79"/>
<polygon fill="black" stroke="black" points="1357.66,-163.28 1347.51,-166.29 1357.33,-170.27 1357.66,-163.28"/>
</g>
<!-- [root] aws_lb_target_group.fargate&#45;tutorial (expand)&#45;&gt;[root] aws_alb.fargate&#45;tutorial (expand) -->
<g id="edge24" class="edge">
<title>[root] aws_lb_target_group.fargate&#45;tutorial (expand)&#45;&gt;[root] aws_alb.fargate&#45;tutorial (expand)</title>
<path fill="none" stroke="black" d="M1713.28,-359.97C1745.98,-350.06 1787.37,-337.51 1821.67,-327.12"/>
<polygon fill="black" stroke="black" points="1823.05,-330.36 1831.6,-324.11 1821.02,-323.66 1823.05,-330.36"/>
</g>
<!-- [root] aws_nat_gateway.ngw (expand) -->
<g id="node14" class="node">
<title>[root] aws_nat_gateway.ngw (expand)</title>
<polygon fill="none" stroke="black" points="2123.69,-324 1980.45,-324 1980.45,-288 2123.69,-288 2123.69,-324"/>
<text text-anchor="middle" x="2052.07" y="-301.8" font-family="Times,serif" font-size="14.00">aws_nat_gateway.ngw</text>
</g>
<!-- [root] aws_nat_gateway.ngw (expand)&#45;&gt;[root] aws_eip.nat (expand) -->
<g id="edge25" class="edge">
<title>[root] aws_nat_gateway.ngw (expand)&#45;&gt;[root] aws_eip.nat (expand)</title>
<path fill="none" stroke="black" d="M2098.59,-287.85C2114.32,-279.56 2130.14,-267.88 2139.07,-252 2146.9,-238.05 2149.61,-228.04 2139.07,-216 2116.62,-190.36 1895.79,-172.91 1793.54,-166.14"/>
<polygon fill="black" stroke="black" points="1793.65,-162.64 1783.44,-165.48 1793.19,-169.63 1793.65,-162.64"/>
</g>
<!-- [root] aws_nat_gateway.ngw (expand)&#45;&gt;[root] aws_internet_gateway.igw (expand) -->
<g id="edge26" class="edge">
<title>[root] aws_nat_gateway.ngw (expand)&#45;&gt;[root] aws_internet_gateway.igw (expand)</title>
<path fill="none" stroke="black" d="M2050.83,-287.7C2050.28,-279.98 2049.62,-270.71 2049,-262.11"/>
<polygon fill="black" stroke="black" points="2052.49,-261.83 2048.29,-252.1 2045.51,-262.33 2052.49,-261.83"/>
</g>
<!-- [root] aws_nat_gateway.ngw (expand)&#45;&gt;[root] aws_subnet.public_a (expand) -->
<g id="edge27" class="edge">
<title>[root] aws_nat_gateway.ngw (expand)&#45;&gt;[root] aws_subnet.public_a (expand)</title>
<path fill="none" stroke="black" d="M1980.18,-289.3C1977.45,-288.84 1974.73,-288.4 1972.07,-288 1801,-262.12 1752.99,-278.66 1577.78,-251.98"/>
<polygon fill="black" stroke="black" points="1578.12,-248.49 1567.7,-250.42 1577.05,-255.41 1578.12,-248.49"/>
</g>
<!-- [root] aws_route.private_ngw (expand) -->
<g id="node15" class="node">
<title>[root] aws_route.private_ngw (expand)</title>
<polygon fill="none" stroke="black" points="1487.58,-396 1340.56,-396 1340.56,-360 1487.58,-360 1487.58,-396"/>
<text text-anchor="middle" x="1414.07" y="-373.8" font-family="Times,serif" font-size="14.00">aws_route.private_ngw</text>
</g>
<!-- [root] aws_route.private_ngw (expand)&#45;&gt;[root] aws_nat_gateway.ngw (expand) -->
<g id="edge28" class="edge">
<title>[root] aws_route.private_ngw (expand)&#45;&gt;[root] aws_nat_gateway.ngw (expand)</title>
<path fill="none" stroke="black" d="M1487.81,-366.14C1504.01,-363.94 1521.1,-361.76 1537.07,-360 1726.59,-339.08 1778.38,-351.77 1970.06,-324.2"/>
<polygon fill="black" stroke="black" points="1970.79,-327.63 1980.19,-322.72 1969.79,-320.7 1970.79,-327.63"/>
</g>
<!-- [root] aws_route_table.private (expand) -->
<g id="node17" class="node">
<title>[root] aws_route_table.private (expand)</title>
<polygon fill="none" stroke="black" points="1057.18,-324 906.95,-324 906.95,-288 1057.18,-288 1057.18,-324"/>
<text text-anchor="middle" x="982.07" y="-301.8" font-family="Times,serif" font-size="14.00">aws_route_table.private</text>
</g>
<!-- [root] aws_route.private_ngw (expand)&#45;&gt;[root] aws_route_table.private (expand) -->
<g id="edge29" class="edge">
<title>[root] aws_route.private_ngw (expand)&#45;&gt;[root] aws_route_table.private (expand)</title>
<path fill="none" stroke="black" d="M1340.24,-366.82C1271.95,-357.15 1167.4,-341.75 1067.14,-324.15"/>
<polygon fill="black" stroke="black" points="1067.59,-320.67 1057.14,-322.38 1066.38,-327.57 1067.59,-320.67"/>
</g>
<!-- [root] aws_route.public_igw (expand) -->
<g id="node16" class="node">
<title>[root] aws_route.public_igw (expand)</title>
<polygon fill="none" stroke="black" points="1795.09,-324 1655.04,-324 1655.04,-288 1795.09,-288 1795.09,-324"/>
<text text-anchor="middle" x="1725.07" y="-301.8" font-family="Times,serif" font-size="14.00">aws_route.public_igw</text>
</g>
<!-- [root] aws_route.public_igw (expand)&#45;&gt;[root] aws_internet_gateway.igw (expand) -->
<g id="edge30" class="edge">
<title>[root] aws_route.public_igw (expand)&#45;&gt;[root] aws_internet_gateway.igw (expand)</title>
<path fill="none" stroke="black" d="M1795.33,-289.72C1843.4,-279.28 1907.49,-265.34 1958.97,-254.15"/>
<polygon fill="black" stroke="black" points="1959.73,-257.57 1968.76,-252.02 1958.25,-250.73 1959.73,-257.57"/>
</g>
<!-- [root] aws_route_table.public (expand) -->
<g id="node18" class="node">
<title>[root] aws_route_table.public (expand)</title>
<polygon fill="none" stroke="black" points="1265.3,-252 1118.83,-252 1118.83,-216 1265.3,-216 1265.3,-252"/>
<text text-anchor="middle" x="1192.07" y="-229.8" font-family="Times,serif" font-size="14.00">aws_route_table.public</text>
</g>
<!-- [root] aws_route.public_igw (expand)&#45;&gt;[root] aws_route_table.public (expand) -->
<g id="edge31" class="edge">
<title>[root] aws_route.public_igw (expand)&#45;&gt;[root] aws_route_table.public (expand)</title>
<path fill="none" stroke="black" d="M1654.93,-289.47C1651.94,-288.95 1648.98,-288.45 1646.07,-288 1485.14,-262.98 1440.05,-276.35 1275.3,-252.09"/>
<polygon fill="black" stroke="black" points="1275.72,-248.61 1265.31,-250.59 1274.69,-255.54 1275.72,-248.61"/>
</g>
<!-- [root] aws_route_table.private (expand)&#45;&gt;[root] aws_vpc.fargate&#45;tutorial (expand) -->
<g id="edge32" class="edge">
<title>[root] aws_route_table.private (expand)&#45;&gt;[root] aws_vpc.fargate&#45;tutorial (expand)</title>
<path fill="none" stroke="black" d="M1002.62,-287.88C1026.97,-268.29 1069.38,-236.3 1110.07,-216 1136.92,-202.6 1167.93,-191.47 1195.52,-182.92"/>
<polygon fill="black" stroke="black" points="1196.57,-186.26 1205.12,-180.01 1194.53,-179.56 1196.57,-186.26"/>
</g>
<!-- [root] aws_route_table.public (expand)&#45;&gt;[root] aws_vpc.fargate&#45;tutorial (expand) -->
<g id="edge33" class="edge">
<title>[root] aws_route_table.public (expand)&#45;&gt;[root] aws_vpc.fargate&#45;tutorial (expand)</title>
<path fill="none" stroke="black" d="M1211.59,-215.7C1221.45,-206.97 1233.55,-196.24 1244.26,-186.75"/>
<polygon fill="black" stroke="black" points="1246.6,-189.36 1251.76,-180.1 1241.96,-184.12 1246.6,-189.36"/>
</g>
<!-- [root] aws_route_table_association.private_a_subnet (expand) -->
<g id="node19" class="node">
<title>[root] aws_route_table_association.private_a_subnet (expand)</title>
<polygon fill="none" stroke="black" points="1246.15,-396 969.98,-396 969.98,-360 1246.15,-360 1246.15,-396"/>
<text text-anchor="middle" x="1108.07" y="-373.8" font-family="Times,serif" font-size="14.00">aws_route_table_association.private_a_subnet</text>
</g>
<!-- [root] aws_route_table_association.private_a_subnet (expand)&#45;&gt;[root] aws_route_table.private (expand) -->
<g id="edge34" class="edge">
<title>[root] aws_route_table_association.private_a_subnet (expand)&#45;&gt;[root] aws_route_table.private (expand)</title>
<path fill="none" stroke="black" d="M1077.24,-359.88C1060.62,-350.64 1039.9,-339.13 1022.05,-329.21"/>
<polygon fill="black" stroke="black" points="1023.45,-325.99 1013.01,-324.19 1020.05,-332.11 1023.45,-325.99"/>
</g>
<!-- [root] aws_route_table_association.private_a_subnet (expand)&#45;&gt;[root] aws_subnet.private_a (expand) -->
<g id="edge35" class="edge">
<title>[root] aws_route_table_association.private_a_subnet (expand)&#45;&gt;[root] aws_subnet.private_a (expand)</title>
<path fill="none" stroke="black" d="M1037.98,-359.97C995.81,-349.72 942.04,-336.65 898.46,-326.05"/>
<polygon fill="black" stroke="black" points="899.02,-322.59 888.47,-323.63 897.36,-329.39 899.02,-322.59"/>
</g>
<!-- [root] aws_route_table_association.public_a_subnet (expand) -->
<g id="node20" class="node">
<title>[root] aws_route_table_association.public_a_subnet (expand)</title>
<polygon fill="none" stroke="black" points="1637.27,-324 1364.86,-324 1364.86,-288 1637.27,-288 1637.27,-324"/>
<text text-anchor="middle" x="1501.07" y="-301.8" font-family="Times,serif" font-size="14.00">aws_route_table_association.public_a_subnet</text>
</g>
<!-- [root] aws_route_table_association.public_a_subnet (expand)&#45;&gt;[root] aws_route_table.public (expand) -->
<g id="edge36" class="edge">
<title>[root] aws_route_table_association.public_a_subnet (expand)&#45;&gt;[root] aws_route_table.public (expand)</title>
<path fill="none" stroke="black" d="M1425.87,-287.97C1380.26,-277.63 1321.99,-264.43 1275.03,-253.8"/>
<polygon fill="black" stroke="black" points="1275.72,-250.36 1265.2,-251.57 1274.18,-257.19 1275.72,-250.36"/>
</g>
<!-- [root] aws_route_table_association.public_a_subnet (expand)&#45;&gt;[root] aws_subnet.public_a (expand) -->
<g id="edge37" class="edge">
<title>[root] aws_route_table_association.public_a_subnet (expand)&#45;&gt;[root] aws_subnet.public_a (expand)</title>
<path fill="none" stroke="black" d="M1501.07,-287.7C1501.07,-279.98 1501.07,-270.71 1501.07,-262.11"/>
<polygon fill="black" stroke="black" points="1504.57,-262.1 1501.07,-252.1 1497.57,-262.1 1504.57,-262.1"/>
</g>
<!-- [root] aws_route_table_association.public_c_subnet (expand) -->
<g id="node21" class="node">
<title>[root] aws_route_table_association.public_c_subnet (expand)</title>
<polygon fill="none" stroke="black" points="1347.27,-324 1074.86,-324 1074.86,-288 1347.27,-288 1347.27,-324"/>
<text text-anchor="middle" x="1211.07" y="-301.8" font-family="Times,serif" font-size="14.00">aws_route_table_association.public_c_subnet</text>
</g>
<!-- [root] aws_route_table_association.public_c_subnet (expand)&#45;&gt;[root] aws_route_table.public (expand) -->
<g id="edge38" class="edge">
<title>[root] aws_route_table_association.public_c_subnet (expand)&#45;&gt;[root] aws_route_table.public (expand)</title>
<path fill="none" stroke="black" d="M1206.37,-287.7C1204.25,-279.9 1201.7,-270.51 1199.35,-261.83"/>
<polygon fill="black" stroke="black" points="1202.71,-260.84 1196.71,-252.1 1195.95,-262.67 1202.71,-260.84"/>
</g>
<!-- [root] aws_route_table_association.public_c_subnet (expand)&#45;&gt;[root] aws_subnet.public_c (expand) -->
<g id="edge39" class="edge">
<title>[root] aws_route_table_association.public_c_subnet (expand)&#45;&gt;[root] aws_subnet.public_c (expand)</title>
<path fill="none" stroke="black" d="M1245.07,-287.88C1263.66,-278.51 1286.89,-266.81 1306.77,-256.8"/>
<polygon fill="black" stroke="black" points="1308.58,-259.81 1315.93,-252.19 1305.43,-253.56 1308.58,-259.81"/>
</g>
<!-- [root] aws_security_group.egress_all (expand)&#45;&gt;[root] aws_vpc.fargate&#45;tutorial (expand) -->
<g id="edge40" class="edge">
<title>[root] aws_security_group.egress_all (expand)&#45;&gt;[root] aws_vpc.fargate&#45;tutorial (expand)</title>
<path fill="none" stroke="black" d="M1757.8,-217.24C1754.86,-216.81 1751.94,-216.4 1749.07,-216 1612.6,-197.19 1453.49,-180.61 1357.61,-171.2"/>
<polygon fill="black" stroke="black" points="1357.68,-167.69 1347.39,-170.2 1357,-174.66 1357.68,-167.69"/>
</g>
<!-- [root] aws_security_group.http (expand)&#45;&gt;[root] aws_vpc.fargate&#45;tutorial (expand) -->
<g id="edge41" class="edge">
<title>[root] aws_security_group.http (expand)&#45;&gt;[root] aws_vpc.fargate&#45;tutorial (expand)</title>
<path fill="none" stroke="black" d="M1585.73,-217.62C1582.8,-217.07 1579.91,-216.53 1577.07,-216 1503.12,-202.29 1418.91,-187.79 1357.58,-177.42"/>
<polygon fill="black" stroke="black" points="1357.99,-173.94 1347.55,-175.73 1356.83,-180.85 1357.99,-173.94"/>
</g>
<!-- [root] aws_security_group.ingress_app (expand)&#45;&gt;[root] aws_vpc.fargate&#45;tutorial (expand) -->
<g id="edge42" class="edge">
<title>[root] aws_security_group.ingress_app (expand)&#45;&gt;[root] aws_vpc.fargate&#45;tutorial (expand)</title>
<path fill="none" stroke="black" d="M778.9,-359.94C765.08,-351.25 750.72,-339.26 743.07,-324 735.9,-309.7 733.87,-301.09 743.07,-288 793.33,-216.48 1048.26,-182.96 1184.65,-169.93"/>
<polygon fill="black" stroke="black" points="1185.04,-173.41 1194.67,-168.99 1184.38,-166.44 1185.04,-173.41"/>
</g>
<!-- [root] aws_subnet.private_a (expand)&#45;&gt;[root] aws_vpc.fargate&#45;tutorial (expand) -->
<g id="edge43" class="edge">
<title>[root] aws_subnet.private_a (expand)&#45;&gt;[root] aws_vpc.fargate&#45;tutorial (expand)</title>
<path fill="none" stroke="black" d="M859.02,-287.88C903.94,-268.58 980.33,-237.16 1048.07,-216 1092.64,-202.08 1143.2,-189.78 1184.9,-180.55"/>
<polygon fill="black" stroke="black" points="1185.73,-183.95 1194.75,-178.39 1184.23,-177.11 1185.73,-183.95"/>
</g>
<!-- [root] aws_subnet.public_a (expand)&#45;&gt;[root] aws_vpc.fargate&#45;tutorial (expand) -->
<g id="edge44" class="edge">
<title>[root] aws_subnet.public_a (expand)&#45;&gt;[root] aws_vpc.fargate&#45;tutorial (expand)</title>
<path fill="none" stroke="black" d="M1445.1,-215.97C1412.54,-206.06 1371.33,-193.51 1337.18,-183.12"/>
<polygon fill="black" stroke="black" points="1337.87,-179.67 1327.29,-180.11 1335.84,-186.37 1337.87,-179.67"/>
</g>
<!-- [root] aws_subnet.public_c (expand)&#45;&gt;[root] aws_vpc.fargate&#45;tutorial (expand) -->
<g id="edge45" class="edge">
<title>[root] aws_subnet.public_c (expand)&#45;&gt;[root] aws_vpc.fargate&#45;tutorial (expand)</title>
<path fill="none" stroke="black" d="M1330.54,-215.7C1320.68,-206.97 1308.58,-196.24 1297.87,-186.75"/>
<polygon fill="black" stroke="black" points="1300.18,-184.12 1290.37,-180.1 1295.53,-189.36 1300.18,-184.12"/>
</g>
<!-- [root] aws_vpc.fargate&#45;tutorial (expand)&#45;&gt;[root] provider[&quot;registry.terraform.io/hashicorp/aws&quot;] -->
<g id="edge46" class="edge">
<title>[root] aws_vpc.fargate&#45;tutorial (expand)&#45;&gt;[root] provider[&quot;registry.terraform.io/hashicorp/aws&quot;]</title>
<path fill="none" stroke="black" d="M1194.57,-151.19C1097.48,-138.75 929.84,-117.25 823.35,-103.6"/>
<polygon fill="black" stroke="black" points="823.61,-100.1 813.24,-102.3 822.72,-107.05 823.61,-100.1"/>
</g>
<!-- [root] output.alb_url -->
<g id="node29" class="node">
<title>[root] output.alb_url</title>
<polygon fill="none" stroke="black" points="1788.5,-540 1699.63,-540 1699.63,-504 1794.5,-504 1794.5,-534 1788.5,-540"/>
<polyline fill="none" stroke="black" points="1788.5,-540 1788.5,-534 "/>
<polyline fill="none" stroke="black" points="1794.5,-534 1788.5,-534 "/>
<text text-anchor="middle" x="1747.07" y="-517.8" font-family="Times,serif" font-size="14.00">output.alb_url</text>
</g>
<!-- [root] output.alb_url&#45;&gt;[root] aws_alb.fargate&#45;tutorial (expand) -->
<g id="edge47" class="edge">
<title>[root] output.alb_url&#45;&gt;[root] aws_alb.fargate&#45;tutorial (expand)</title>
<path fill="none" stroke="black" d="M1758.37,-503.85C1783.07,-466.36 1841.98,-376.95 1871.13,-332.7"/>
<polygon fill="black" stroke="black" points="1874.13,-334.51 1876.71,-324.23 1868.29,-330.66 1874.13,-334.51"/>
</g>
<!-- [root] var.environment -->
<g id="node31" class="node">
<title>[root] var.environment</title>
<polygon fill="none" stroke="black" points="618.2,-36 515.93,-36 515.93,0 624.2,0 624.2,-30 618.2,-36"/>
<polyline fill="none" stroke="black" points="618.2,-36 618.2,-30 "/>
<polyline fill="none" stroke="black" points="624.2,-30 618.2,-30 "/>
<text text-anchor="middle" x="570.07" y="-13.8" font-family="Times,serif" font-size="14.00">var.environment</text>
</g>
<!-- [root] provider[&quot;registry.terraform.io/hashicorp/aws&quot;]&#45;&gt;[root] var.environment -->
<g id="edge57" class="edge">
<title>[root] provider[&quot;registry.terraform.io/hashicorp/aws&quot;]&#45;&gt;[root] var.environment</title>
<path fill="none" stroke="black" d="M691.82,-73.98C670.06,-64.16 641.32,-51.18 617.22,-40.29"/>
<polygon fill="black" stroke="black" points="618.45,-37.01 607.89,-36.08 615.57,-43.39 618.45,-37.01"/>
</g>
<!-- [root] var.profile -->
<g id="node32" class="node">
<title>[root] var.profile</title>
<polygon fill="none" stroke="black" points="710.26,-36 641.87,-36 641.87,0 716.26,0 716.26,-30 710.26,-36"/>
<polyline fill="none" stroke="black" points="710.26,-36 710.26,-30 "/>
<polyline fill="none" stroke="black" points="716.26,-30 710.26,-30 "/>
<text text-anchor="middle" x="679.07" y="-13.8" font-family="Times,serif" font-size="14.00">var.profile</text>
</g>
<!-- [root] provider[&quot;registry.terraform.io/hashicorp/aws&quot;]&#45;&gt;[root] var.profile -->
<g id="edge58" class="edge">
<title>[root] provider[&quot;registry.terraform.io/hashicorp/aws&quot;]&#45;&gt;[root] var.profile</title>
<path fill="none" stroke="black" d="M714.17,-72.41C708.77,-64.2 702.13,-54.1 696.09,-44.9"/>
<polygon fill="black" stroke="black" points="698.95,-42.88 690.53,-36.45 693.1,-46.73 698.95,-42.88"/>
</g>
<!-- [root] var.region -->
<g id="node33" class="node">
<title>[root] var.region</title>
<polygon fill="none" stroke="black" points="801.71,-36 734.43,-36 734.43,0 807.71,0 807.71,-30 801.71,-36"/>
<polyline fill="none" stroke="black" points="801.71,-36 801.71,-30 "/>
<polyline fill="none" stroke="black" points="807.71,-30 801.71,-30 "/>
<text text-anchor="middle" x="771.07" y="-13.8" font-family="Times,serif" font-size="14.00">var.region</text>
</g>
<!-- [root] provider[&quot;registry.terraform.io/hashicorp/aws&quot;]&#45;&gt;[root] var.region -->
<g id="edge59" class="edge">
<title>[root] provider[&quot;registry.terraform.io/hashicorp/aws&quot;]&#45;&gt;[root] var.region</title>
<path fill="none" stroke="black" d="M735.97,-72.41C741.36,-64.2 748,-54.1 754.05,-44.9"/>
<polygon fill="black" stroke="black" points="757.03,-46.73 759.6,-36.45 751.18,-42.88 757.03,-46.73"/>
</g>
<!-- [root] var.service -->
<g id="node34" class="node">
<title>[root] var.service</title>
<polygon fill="none" stroke="black" points="896.58,-36 825.55,-36 825.55,0 902.58,0 902.58,-30 896.58,-36"/>
<polyline fill="none" stroke="black" points="896.58,-36 896.58,-30 "/>
<polyline fill="none" stroke="black" points="902.58,-30 896.58,-30 "/>
<text text-anchor="middle" x="864.07" y="-13.8" font-family="Times,serif" font-size="14.00">var.service</text>
</g>
<!-- [root] provider[&quot;registry.terraform.io/hashicorp/aws&quot;]&#45;&gt;[root] var.service -->
<g id="edge60" class="edge">
<title>[root] provider[&quot;registry.terraform.io/hashicorp/aws&quot;]&#45;&gt;[root] var.service</title>
<path fill="none" stroke="black" d="M755.23,-73.81C774.42,-64.14 799.59,-51.47 820.89,-40.74"/>
<polygon fill="black" stroke="black" points="822.7,-43.75 830.06,-36.13 819.55,-37.5 822.7,-43.75"/>
</g>
<!-- [root] provider[&quot;registry.terraform.io/hashicorp/aws&quot;] (close) -->
<g id="node36" class="node">
<title>[root] provider[&quot;registry.terraform.io/hashicorp/aws&quot;] (close)</title>
<ellipse fill="none" stroke="black" cx="1293.07" cy="-522" rx="247.22" ry="18"/>
<text text-anchor="middle" x="1293.07" y="-517.8" font-family="Times,serif" font-size="14.00">[root] provider[&quot;registry.terraform.io/hashicorp/aws&quot;] (close)</text>
</g>
<!-- [root] provider[&quot;registry.terraform.io/hashicorp/aws&quot;] (close)&#45;&gt;[root] aws_alb_listener.fargate&#45;tutorial_http (expand) -->
<g id="edge48" class="edge">
<title>[root] provider[&quot;registry.terraform.io/hashicorp/aws&quot;] (close)&#45;&gt;[root] aws_alb_listener.fargate&#45;tutorial_http (expand)</title>
<path fill="none" stroke="black" d="M1376.12,-505.03C1430.36,-494.6 1501.43,-480.93 1558.53,-469.95"/>
<polygon fill="black" stroke="black" points="1559.49,-473.33 1568.65,-468 1558.17,-466.45 1559.49,-473.33"/>
</g>
<!-- [root] provider[&quot;registry.terraform.io/hashicorp/aws&quot;] (close)&#45;&gt;[root] aws_ecr_lifecycle_policy.fargate&#45;tutorial (expand) -->
<g id="edge49" class="edge">
<title>[root] provider[&quot;registry.terraform.io/hashicorp/aws&quot;] (close)&#45;&gt;[root] aws_ecr_lifecycle_policy.fargate&#45;tutorial (expand)</title>
<path fill="none" stroke="black" d="M1087.7,-511.9C898.14,-502.9 608.9,-487.64 358.07,-468 346.28,-467.08 334.05,-466.03 321.79,-464.92"/>
<polygon fill="black" stroke="black" points="321.78,-461.4 311.5,-463.97 321.14,-468.37 321.78,-461.4"/>
</g>
<!-- [root] provider[&quot;registry.terraform.io/hashicorp/aws&quot;] (close)&#45;&gt;[root] aws_ecs_service.fargate&#45;tutorial (expand) -->
<g id="edge50" class="edge">
<title>[root] provider[&quot;registry.terraform.io/hashicorp/aws&quot;] (close)&#45;&gt;[root] aws_ecs_service.fargate&#45;tutorial (expand)</title>
<path fill="none" stroke="black" d="M1204.8,-505.12C1146.61,-494.65 1070.14,-480.88 1008.87,-469.86"/>
<polygon fill="black" stroke="black" points="1009.25,-466.37 998.78,-468.04 1008.01,-473.26 1009.25,-466.37"/>
</g>
<!-- [root] provider[&quot;registry.terraform.io/hashicorp/aws&quot;] (close)&#45;&gt;[root] aws_iam_role_policy_attachment.ecs_task_execution_role (expand) -->
<g id="edge51" class="edge">
<title>[root] provider[&quot;registry.terraform.io/hashicorp/aws&quot;] (close)&#45;&gt;[root] aws_iam_role_policy_attachment.ecs_task_execution_role (expand)</title>
<path fill="none" stroke="black" d="M1146.99,-507.42C1026,-496.17 853.44,-480.13 723.22,-468.03"/>
<polygon fill="black" stroke="black" points="723.42,-464.53 713.13,-467.09 722.77,-471.5 723.42,-464.53"/>
</g>
<!-- [root] provider[&quot;registry.terraform.io/hashicorp/aws&quot;] (close)&#45;&gt;[root] aws_route.private_ngw (expand) -->
<g id="edge52" class="edge">
<title>[root] provider[&quot;registry.terraform.io/hashicorp/aws&quot;] (close)&#45;&gt;[root] aws_route.private_ngw (expand)</title>
<path fill="none" stroke="black" d="M1307.66,-503.87C1328.83,-479.03 1368.18,-432.85 1392.64,-404.14"/>
<polygon fill="black" stroke="black" points="1395.6,-406.07 1399.42,-396.19 1390.27,-401.53 1395.6,-406.07"/>
</g>
<!-- [root] provider[&quot;registry.terraform.io/hashicorp/aws&quot;] (close)&#45;&gt;[root] aws_route.public_igw (expand) -->
<g id="edge53" class="edge">
<title>[root] provider[&quot;registry.terraform.io/hashicorp/aws&quot;] (close)&#45;&gt;[root] aws_route.public_igw (expand)</title>
<path fill="none" stroke="black" d="M1324.62,-504.05C1365.72,-481.44 1439.15,-439.24 1497.07,-396 1516.23,-381.69 1516.12,-371.55 1537.07,-360 1556.01,-349.56 1602.75,-336.36 1644.89,-325.75"/>
<polygon fill="black" stroke="black" points="1645.78,-329.14 1654.64,-323.32 1644.09,-322.34 1645.78,-329.14"/>
</g>
<!-- [root] provider[&quot;registry.terraform.io/hashicorp/aws&quot;] (close)&#45;&gt;[root] aws_route_table_association.private_a_subnet (expand) -->
<g id="edge54" class="edge">
<title>[root] provider[&quot;registry.terraform.io/hashicorp/aws&quot;] (close)&#45;&gt;[root] aws_route_table_association.private_a_subnet (expand)</title>
<path fill="none" stroke="black" d="M1270.75,-503.87C1237.69,-478.5 1175.62,-430.85 1138.45,-402.32"/>
<polygon fill="black" stroke="black" points="1140.52,-399.5 1130.46,-396.19 1136.26,-405.05 1140.52,-399.5"/>
</g>
<!-- [root] provider[&quot;registry.terraform.io/hashicorp/aws&quot;] (close)&#45;&gt;[root] aws_route_table_association.public_a_subnet (expand) -->
<g id="edge55" class="edge">
<title>[root] provider[&quot;registry.terraform.io/hashicorp/aws&quot;] (close)&#45;&gt;[root] aws_route_table_association.public_a_subnet (expand)</title>
<path fill="none" stroke="black" d="M1294.95,-504C1299.37,-467.03 1311.54,-380.96 1331.07,-360 1344.26,-345.84 1361.16,-335.44 1379.17,-327.81"/>
<polygon fill="black" stroke="black" points="1380.66,-330.98 1388.68,-324.06 1378.09,-324.47 1380.66,-330.98"/>
</g>
<!-- [root] provider[&quot;registry.terraform.io/hashicorp/aws&quot;] (close)&#45;&gt;[root] aws_route_table_association.public_c_subnet (expand) -->
<g id="edge56" class="edge">
<title>[root] provider[&quot;registry.terraform.io/hashicorp/aws&quot;] (close)&#45;&gt;[root] aws_route_table_association.public_c_subnet (expand)</title>
<path fill="none" stroke="black" d="M1291.6,-503.67C1288.45,-473.18 1279.28,-408.58 1255.07,-360 1250.05,-349.94 1242.79,-340.13 1235.61,-331.73"/>
<polygon fill="black" stroke="black" points="1238.1,-329.27 1228.82,-324.16 1232.89,-333.94 1238.1,-329.27"/>
</g>
<!-- [root] root -->
<g id="node37" class="node">
<title>[root] root</title>
<ellipse fill="none" stroke="black" cx="1449.07" cy="-594" rx="50.98" ry="18"/>
<text text-anchor="middle" x="1449.07" y="-589.8" font-family="Times,serif" font-size="14.00">[root] root</text>
</g>
<!-- [root] root&#45;&gt;[root] output.alb_url -->
<g id="edge61" class="edge">
<title>[root] root&#45;&gt;[root] output.alb_url</title>
<path fill="none" stroke="black" d="M1490.19,-583.34C1541.96,-571.18 1631.18,-550.22 1689.65,-536.49"/>
<polygon fill="black" stroke="black" points="1690.55,-539.87 1699.48,-534.18 1688.95,-533.06 1690.55,-539.87"/>
</g>
<!-- [root] root&#45;&gt;[root] provider[&quot;registry.terraform.io/hashicorp/aws&quot;] (close) -->
<g id="edge62" class="edge">
<title>[root] root&#45;&gt;[root] provider[&quot;registry.terraform.io/hashicorp/aws&quot;] (close)</title>
<path fill="none" stroke="black" d="M1418.62,-579.34C1396.19,-569.27 1365.28,-555.4 1339.74,-543.94"/>
<polygon fill="black" stroke="black" points="1341.16,-540.74 1330.6,-539.84 1338.29,-547.13 1341.16,-540.74"/>
</g>
</g>
</svg>
